<svg width="324" height="370" viewBox="0 0 324 370" fill="none" xmlns="http://www.w3.org/2000/svg">
<g clip-path="url(#clip0_1_33)">
<path d="M24.5635 103.577C3.86377 106.729 -15.5171 115.68 -31.3385 129.394" stroke="black" stroke-width="1.575" stroke-linecap="round" stroke-linejoin="round"/>
<path d="M90.7832 113.981C81.1274 109.152 70.8185 105.765 60.1799 103.929" stroke="black" stroke-width="1.575" stroke-linecap="round" stroke-linejoin="round"/>
<path d="M156.779 301.173L112.408 399.091" stroke="black" stroke-width="1.575" stroke-linecap="round" stroke-linejoin="round"/>
<path d="M180.623 248.939L243.228 110.879C246.62 103.529 241.832 97.0334 233.812 98.0687L125.12 112.273C118.801 113.101 112.795 115.509 107.656 119.276C102.515 123.042 98.4099 128.045 95.7198 133.821L-27.2562 399.286" stroke="black" stroke-width="1.575" stroke-linecap="round" stroke-linejoin="round"/>
<path d="M158.342 236.216C172.186 245.557 187.246 252.953 203.102 258.195C210.878 259.312 218.711 259.99 226.563 260.23" stroke="black" stroke-width="1.575" stroke-linecap="round" stroke-linejoin="round"/>
<path d="M218.444 277.357L234.093 243.679C235.402 240.882 237.767 238.717 240.67 237.663C243.573 236.609 246.775 236.749 249.575 238.054L295.812 259.639C298.61 260.948 300.775 263.312 301.83 266.215C302.885 269.119 302.745 272.321 301.44 275.121L273.827 334.496C272.519 337.293 270.154 339.458 267.251 340.513C264.348 341.567 261.146 341.426 258.346 340.122L212.579 318.773" stroke="black" stroke-width="1.575" stroke-linecap="round" stroke-linejoin="round"/>
<path d="M272.8 249.065C272.8 249.065 303.892 246.205 316.652 237.135C329.412 228.065 318.815 206.055 302.408 217.742C285.738 229.607 272.8 249.065 272.8 249.065Z" stroke="black" stroke-width="1.575" stroke-linecap="round" stroke-linejoin="round"/>
<path d="M272.921 249.092C272.921 249.092 253.588 224.595 251.375 209.07C249.161 193.545 272.415 186.132 275.231 206.031C278.12 226.313 272.921 249.092 272.921 249.092Z" stroke="black" stroke-width="1.575" stroke-linecap="round" stroke-linejoin="round"/>
<path d="M159.183 233.983L157.205 227.683C157.205 227.683 175.834 240.331 172.407 213.117C169.948 193.587 159.725 203.037 157.358 210.221C156.804 211.901 156.128 212.432 154.418 209.885C151.348 205.334 145.686 211.437 152.303 217.706C153.574 218.911 153.089 227.867 145.478 234.386C140.648 238.527 125.688 241.408 104.022 235.226" stroke="black" stroke-width="1.575" stroke-linecap="round" stroke-linejoin="round"/>
<path d="M160.347 229.335C159.1 234.711 157.323 239.951 155.04 244.976" stroke="black" stroke-width="1.575" stroke-linecap="round" stroke-linejoin="round"/>
<path d="M148.452 231.003C153.282 246.445 167.487 263.602 178.619 277.569C194.852 278.961 211.188 278.585 227.339 276.45" stroke="black" stroke-width="1.575" stroke-linecap="round" stroke-linejoin="round"/>
<path d="M88.2336 266.245C95.1552 271.739 103.543 275.07 112.348 275.817C121.153 276.565 129.983 274.696 137.731 270.445C143.335 280.954 149.566 291.116 156.387 300.879C158.641 304.276 161.993 306.796 165.883 308.019C186.933 314.482 208.572 318.84 230.483 321.026" stroke="black" stroke-width="1.575" stroke-linecap="round" stroke-linejoin="round"/>
<path d="M107.94 275.366C100.437 287.376 92.4653 294.621 88.028 292.563C74.3003 286.194 106.243 217.098 120.189 223.532C123.302 224.971 124.02 230.634 122.709 238.497" stroke="black" stroke-width="1.575" stroke-linecap="round" stroke-linejoin="round"/>
<path d="M-17.3803 133.159C-17.7793 145.448 -19.2955 189.859 -19.2955 194.447C-12.2731 195.524 43.1501 208.851 46.3022 209.41" stroke="black" stroke-width="1.575" stroke-linecap="round" stroke-linejoin="round"/>
<path d="M23.7983 257.905C-60.355 228.295 -58.5112 229.693 -60.2017 206.591C-61.2748 191.868 -59.5234 149.652 -58.486 133.053" stroke="black" stroke-width="1.575" stroke-linecap="round" stroke-linejoin="round"/>
<path d="M66.9917 111.984C60.9269 122.677 36.7517 162.659 34.5908 166.689C36.9008 168.405 47.4785 179.858 56.2208 188.078" stroke="black" stroke-width="1.575" stroke-linecap="round" stroke-linejoin="round"/>
<path d="M3.48562 199.509C-12.9931 174.01 -9.79477 167.671 -4.70437 157.053C1.88963 143.332 23.6267 104.463 31.6865 91.3755" stroke="black" stroke-width="1.575" stroke-linecap="round" stroke-linejoin="round"/>
<path d="M57.902 22.0305C65.0042 34.7586 72.4256 63.9675 73.022 77.2164C70.9073 80.6058 68.8724 83.9574 66.9173 87.2712C61.262 82.285 54.8675 78.2059 47.9627 75.1794C47.9291 71.4918 46.8497 54.4944 57.902 22.0305Z" stroke="black" stroke-width="1.575" stroke-linecap="round" stroke-linejoin="round"/>
<path d="M243.502 102.448C241.338 97.3875 237.586 93.1692 232.812 90.4304C228.038 87.6915 222.503 86.5811 217.042 87.2669L110.465 100.993C105.847 101.585 101.456 103.338 97.7011 106.088C93.9442 108.837 90.9475 112.494 88.9882 116.717L-41.9279 399.302" stroke="black" stroke-width="1.575" stroke-linecap="round" stroke-linejoin="round"/>
<path d="M221.167 115.308C219.697 118.5 220.209 121.892 222.324 122.889C224.438 123.887 227.391 122.091 228.867 118.899C230.344 115.707 229.833 112.299 227.71 111.318C225.587 110.337 222.637 112.116 221.167 115.308Z" stroke="black" stroke-width="1.575" stroke-linecap="round" stroke-linejoin="round"/>
<path d="M287.488 132.235L276.835 155.297" stroke="black" stroke-width="1.575" stroke-linecap="round" stroke-linejoin="round"/>
<path d="M270.65 138.419L293.672 149.112" stroke="black" stroke-width="1.575" stroke-linecap="round" stroke-linejoin="round"/>
<path d="M58.8398 126.005C44.9945 123.364 32.5289 115.911 23.6501 104.965" stroke="black" stroke-width="1.575" stroke-linecap="round" stroke-linejoin="round"/>
<path d="M135.205 19.4902L162.778 31.0633L138.277 13.9042L144.621 2.3731C144.829 1.99854 145.124 1.6793 145.481 1.44211C145.838 1.20489 146.247 1.05665 146.672 1.00976C147.098 0.962869 147.529 1.01872 147.929 1.17261C148.329 1.3265 148.686 1.57399 148.97 1.8943L182.129 38.8039C182.495 39.2184 182.724 39.7357 182.783 40.285C182.844 40.8344 182.734 41.389 182.468 41.8733C182.202 42.3577 181.793 42.7481 181.297 42.9913C180.8 43.2347 180.241 43.3189 179.695 43.2328L130.736 34.9735C130.315 34.9048 129.917 34.7366 129.575 34.4825C129.232 34.2284 128.956 33.896 128.768 33.5132C128.58 33.1303 128.488 32.708 128.496 32.2819C128.506 31.8556 128.617 31.4377 128.821 31.0633L135.205 19.4902Z" stroke="black" stroke-width="1.575" stroke-linecap="round" stroke-linejoin="round"/>
<path d="M243.747 273.943C251.404 272.149 258.739 269.191 265.495 265.165C269.564 262.93 271.091 265.177 267.13 268.676C263.463 271.786 259.477 274.504 255.24 276.778" stroke="black" stroke-width="1.575" stroke-linecap="round" stroke-linejoin="round"/>
<path d="M258.853 274.674C263.17 273.294 267.394 271.642 271.501 269.726C275.605 267.561 276.804 270.356 272.619 273.557C267.54 277.018 262.204 280.088 256.658 282.736" stroke="black" stroke-width="1.575" stroke-linecap="round" stroke-linejoin="round"/>
<path d="M262.718 279.697C265.848 278.97 268.938 278.078 271.974 277.024C276.265 275.415 277.157 278.41 272.653 280.974C267.888 283.45 262.923 285.518 257.81 287.158" stroke="black" stroke-width="1.575" stroke-linecap="round" stroke-linejoin="round"/>
<path d="M222.944 303.355C224.061 303.714 243.654 298.33 255.185 293.859C259.805 292.063 264.635 290.259 269.15 288.033C273.695 285.791 273.426 283.548 269.031 284.562C267.437 284.93 265.559 285.161 262.487 285.56" stroke="black" stroke-width="1.575" stroke-linecap="round" stroke-linejoin="round"/>
<path d="M236.34 300.049C236.899 311.58 234.622 320.829 231.071 321.117C222.186 321.837 218.681 277.804 227.52 276.269C233.958 274.833 239.828 271.527 244.398 266.771C253.148 257.205 255.891 259.269 247.59 272.636" stroke="black" stroke-width="1.575" stroke-linecap="round" stroke-linejoin="round"/>
<path d="M138.711 341.161C142.466 342.856 145.645 345.609 147.859 349.082C150.071 352.555 151.222 356.602 151.169 360.72C151.117 364.838 149.864 368.854 147.562 372.27C145.262 375.687 142.014 378.358 138.217 379.956C134.421 381.554 130.24 382.008 126.188 381.265C122.136 380.521 118.389 378.61 115.407 375.769C112.427 372.925 110.34 369.276 109.403 365.263C108.465 361.252 108.721 357.054 110.134 353.185C111.138 350.455 112.692 347.961 114.7 345.859C116.707 343.754 119.126 342.087 121.808 340.959C124.489 339.832 127.372 339.267 130.28 339.302C133.188 339.336 136.058 339.97 138.711 341.161Z" stroke="black" stroke-width="1.575" stroke-linecap="round" stroke-linejoin="round"/>
<path d="M38.1368 91.9212C34.5857 90.7641 32.0804 90.5688 31.4735 91.602C29.7935 94.4664 41.9882 102.522 44.8484 104.275C48.6284 106.585 64.9454 115.649 66.9866 112.111C67.8896 110.546 64.1537 106.604 58.049 102.335" stroke="black" stroke-width="1.575" stroke-linecap="round" stroke-linejoin="round"/>
<path d="M47.9979 75.075C54.8985 78.0685 61.2825 82.1362 66.9126 87.1269C62.4837 94.6281 57.8553 102.457 54.3021 109.387C47.3721 106.212 40.9041 102.114 35.0703 97.2069L47.9979 75.075Z" stroke="black" stroke-width="1.575" stroke-linecap="round" stroke-linejoin="round"/>
<path d="M115.266 192.713C115.451 194.004 116.053 195.2 116.984 196.116C117.914 197.03 119.119 197.615 120.413 197.78C119.14 198.39 118.126 199.433 117.553 200.722C116.979 202.009 116.883 203.463 117.28 204.815C117.679 206.169 118.546 207.337 119.726 208.11C120.909 208.881 122.324 209.208 123.725 209.032C123.233 209.658 122.874 210.376 122.668 211.144C122.463 211.911 122.414 212.713 122.528 213.501C122.635 214.273 122.893 215.017 123.288 215.691C123.683 216.363 124.207 216.953 124.829 217.423C125.452 217.894 126.161 218.236 126.917 218.433C127.672 218.629 128.458 218.675 129.231 218.568C129.797 218.488 130.348 218.328 130.867 218.089C130.655 218.883 130.6 219.708 130.707 220.523C130.854 221.617 131.305 222.648 132.006 223.501C132.708 224.351 133.635 224.99 134.681 225.342C135.727 225.695 136.851 225.748 137.925 225.496C139 225.244 139.983 224.696 140.762 223.914C140.756 224.089 140.769 224.263 140.802 224.433C141.026 225.991 141.855 227.398 143.111 228.345C144.366 229.295 145.946 229.71 147.505 229.5C148.664 229.347 149.749 228.847 150.617 228.064C153.291 223.037 152.98 218.404 152.297 217.73C145.787 211.354 151.344 205.359 154.414 209.91C155.687 211.8 156.665 212.457 157.331 210.376C159.63 203.187 169.683 193.611 172.409 213.181C173.104 216.997 173.077 220.909 172.329 224.715C173.112 224.072 173.718 223.238 174.088 222.295C174.459 221.352 174.58 220.33 174.444 219.326C174.411 219.082 174.359 218.843 174.284 218.608C175.356 219.147 176.569 219.343 177.756 219.166C179.31 218.935 180.711 218.104 181.658 216.85C182.607 215.596 183.024 214.021 182.823 212.463C182.691 211.564 182.364 210.703 181.865 209.943C182.355 209.983 182.846 209.983 183.335 209.943C184.529 209.781 185.645 209.259 186.535 208.446C187.424 207.633 188.045 206.566 188.313 205.392C188.582 204.219 188.487 202.99 188.039 201.871C187.592 200.751 186.814 199.796 185.809 199.13C187.192 198.858 188.434 198.104 189.313 197.002C190.192 195.9 190.651 194.522 190.608 193.113C190.565 191.704 190.022 190.355 189.078 189.31C188.133 188.263 186.848 187.587 185.45 187.4C186.718 186.792 187.73 185.752 188.304 184.468C188.878 183.184 188.977 181.737 188.584 180.387C188.192 179.035 187.333 177.868 186.159 177.092C184.986 176.316 183.575 175.981 182.178 176.148C182.917 175.22 183.362 174.091 183.453 172.908C183.544 171.724 183.279 170.541 182.692 169.51C182.104 168.479 181.221 167.648 180.156 167.124C179.091 166.6 177.894 166.407 176.718 166.57C176.164 166.644 175.625 166.806 175.122 167.049C175.359 166.246 175.427 165.404 175.322 164.575C175.219 163.8 174.963 163.053 174.569 162.378C174.175 161.703 173.652 161.113 173.028 160.641C172.405 160.17 171.694 159.827 170.937 159.632C170.18 159.438 169.392 159.395 168.618 159.507C167.37 159.69 166.211 160.263 165.307 161.143C165.237 159.78 164.701 158.483 163.787 157.469C162.874 156.455 161.639 155.787 160.291 155.576C158.943 155.366 157.563 155.626 156.384 156.312C155.205 156.999 154.298 158.071 153.816 159.348C151.692 152.787 141.753 154.585 141.846 161.263C141.029 160.251 139.902 159.535 138.639 159.223C137.376 158.912 136.046 159.022 134.852 159.538C133.658 160.053 132.665 160.946 132.026 162.079C131.387 163.212 131.136 164.523 131.312 165.812C131.342 166.069 131.395 166.322 131.472 166.57C130.411 166.04 129.214 165.844 128.04 166.011C126.48 166.234 125.072 167.064 124.121 168.322C123.17 169.579 122.757 171.161 122.967 172.723C123.082 173.633 123.424 174.5 123.964 175.243C123.485 175.2 123.004 175.212 122.528 175.281C120.974 175.513 119.573 176.344 118.624 177.598C117.677 178.852 117.259 180.428 117.46 181.986C117.576 182.826 117.872 183.631 118.326 184.347C118.779 185.063 119.384 185.673 120.094 186.135C118.592 186.39 117.248 187.218 116.347 188.447C115.446 189.674 115.058 191.204 115.266 192.713Z" stroke="black" stroke-width="1.575" stroke-linecap="round" stroke-linejoin="round"/>
<path d="M277.931 251.375L268.834 270.926" stroke="black" stroke-width="1.575" stroke-linecap="round" stroke-linejoin="round"/>
<path d="M258.89 292.295L240.534 331.718" stroke="black" stroke-width="1.575" stroke-linecap="round" stroke-linejoin="round"/>
<path d="M267.345 246.443L256.492 269.745" stroke="black" stroke-width="1.575" stroke-linecap="round" stroke-linejoin="round"/>
<path d="M243.434 297.851L234.735 316.524" stroke="black" stroke-width="1.575" stroke-linecap="round" stroke-linejoin="round"/>
<path d="M233.392 319.321L229.961 326.745" stroke="black" stroke-width="1.575" stroke-linecap="round" stroke-linejoin="round"/>
<path d="M137.792 270.501C136.213 267.374 134.799 264.167 133.554 260.894V272.584" stroke="black" stroke-width="1.575" stroke-linecap="round" stroke-linejoin="round"/>
</g>
<defs>
<clipPath id="clip0_1_33">
<rect width="400" height="400" fill="white" transform="translate(-76)"/>
</clipPath>
</defs>
</svg>
