<svg width="323" height="306" viewBox="0 0 323 306" fill="none" xmlns="http://www.w3.org/2000/svg">
<g clip-path="url(#clip0_1_134)">
<path d="M20.767 147.855L70.585 200.426L50.8326 113.463L1.01459 60.8916L20.767 147.855Z" stroke="black" stroke-width="1.725" stroke-linecap="round" stroke-linejoin="round"/>
<path d="M92.0355 150.759L103.791 161.553C99.6669 162.426 95.6603 163.79 91.8607 165.617C90.2507 166.303 88.7718 167.264 87.4907 168.458C85.699 170.512 95.3107 167.584 100.033 167.06H100.076C99.1218 167.562 98.2524 168.211 97.498 168.982C95.9478 170.756 107.804 166.742 108.86 167.497C104.315 169.55 97.2795 173.44 95.5752 176.467C93.565 180.094 103.878 172.881 110.564 172.662C106.325 174.629 101.693 177.384 100.033 180.443C97.7602 184.583 105.976 176.993 115.765 176.685H115.808C106.457 182.366 102.086 187.035 115.371 181.274C117.807 180.185 120.406 179.505 123.062 179.263L149.763 203.68L70.9284 200.621L59.3479 149.58L92.0355 150.759Z" stroke="black" stroke-width="1.725" stroke-linecap="round" stroke-linejoin="round"/>
<path d="M201.373 45.6685C201.186 44.6098 201.384 43.5194 201.929 42.5925C202.472 41.6656 203.33 40.9625 204.344 40.6085C203.691 40.0047 203.229 39.2232 203.013 38.3598C202.797 37.4966 202.838 36.5892 203.132 35.749C203.424 34.9091 203.958 34.1729 204.662 33.631C205.368 33.0891 206.217 32.765 207.104 32.6988C206.743 31.9285 206.601 31.0729 206.697 30.2272C206.792 29.3815 207.121 28.5788 207.645 27.9086C208.169 27.2384 208.869 26.7266 209.667 26.4306C210.465 26.1344 211.33 26.0654 212.164 26.2312C212.056 25.3832 212.19 24.5218 212.549 23.7456C212.907 22.9693 213.475 22.3092 214.191 21.8403C214.906 21.3713 215.739 21.1125 216.592 21.093C217.448 21.0734 218.289 21.2942 219.025 21.7301C219.182 20.8591 219.584 20.0513 220.188 19.4039C220.792 18.7564 221.569 18.2969 222.427 18.08C223.285 17.8631 224.187 17.8985 225.025 18.1816C225.863 18.4648 226.603 18.9837 227.153 19.6762C227.57 18.842 228.221 18.1471 229.027 17.6766C229.832 17.206 230.756 16.9801 231.688 17.0264C232.619 17.0728 233.518 17.3893 234.272 17.9376C235.026 18.4857 235.605 19.2417 235.937 20.1132C236.465 19.5566 237.125 19.1417 237.855 18.9068C238.586 18.6722 239.364 18.6249 240.117 18.7698C240.871 18.9147 241.576 19.2465 242.167 19.7355C242.759 20.2243 243.218 20.854 243.502 21.5668C243.427 20.4741 243.665 19.3827 244.19 18.4211C244.714 17.4592 245.502 16.6673 246.461 16.1381C247.42 15.6091 248.509 15.3648 249.603 15.4341C250.695 15.5035 251.746 15.8837 252.631 16.5298C253.115 15.4122 253.929 14.469 254.964 13.8264C255.998 13.184 257.204 12.8728 258.421 12.9344C259.638 12.9963 260.806 13.428 261.771 14.1721C262.736 14.9161 263.45 15.9368 263.818 17.0979C264.818 16.493 265.98 16.2089 267.146 16.2841C268.313 16.3594 269.429 16.7901 270.343 17.5183C271.257 18.2467 271.926 19.2378 272.26 20.3581C272.593 21.4782 272.576 22.674 272.211 23.784C273.38 23.9165 274.482 24.4064 275.363 25.1872C276.245 25.9678 276.865 27.0012 277.137 28.1469C277.411 29.2923 277.323 30.494 276.889 31.5886C276.454 32.6829 275.693 33.6167 274.708 34.2628C275.631 35.0094 276.298 36.0234 276.618 37.1654C276.939 38.3073 276.898 39.5208 276.5 40.6382C276.102 41.7557 275.367 42.722 274.397 43.4039C273.426 44.0859 272.267 44.4495 271.081 44.4449C271.319 45.5843 271.204 46.7693 270.75 47.8411C270.297 48.9131 269.526 49.8209 268.543 50.4433C267.56 51.0659 266.409 51.3732 265.246 51.3242C264.083 51.2752 262.963 50.8725 262.035 50.1696C261.667 51.1124 261.05 51.9364 260.248 52.5535C259.447 53.1704 258.491 53.5566 257.486 53.6702C257.671 54.3227 257.708 55.0083 257.595 55.6769C257.482 56.3458 257.223 56.981 256.834 57.5367C256.445 58.0926 255.938 58.5552 255.348 58.891C254.759 59.2265 254.103 59.4271 253.426 59.4777C253.792 60.2505 253.934 61.11 253.835 61.9592C253.736 62.8081 253.402 63.6126 252.87 64.2812C252.337 64.9501 251.629 65.4563 250.823 65.7427C250.018 66.029 249.148 66.0842 248.314 65.9016C248.414 66.7512 248.274 67.6121 247.91 68.386C247.545 69.1602 246.971 69.8166 246.253 70.2808C245.534 70.7452 244.7 70.9984 243.845 71.0124C242.989 71.0262 242.147 70.7999 241.414 70.359C241.257 71.2309 240.852 72.0389 240.246 72.6854C239.641 73.332 238.862 73.7892 238.001 74.0017C237.142 74.2145 236.239 74.1733 235.401 73.8837C234.565 73.5939 233.829 73.0679 233.285 72.3692C232.734 73.1595 232.02 73.8219 231.19 74.312C230.361 74.8019 229.436 75.1083 228.478 75.2097C227.014 72.5651 226.023 69.6853 225.55 66.6997C225.064 63.6598 225.632 60.5449 227.16 57.8723C233.672 55.731 230.744 48.0835 226.33 51.0551C224.233 52.4972 223.437 52.4052 223.271 51.0114C223.258 50.6087 223.138 50.217 222.92 49.8775C222.704 49.538 222.398 49.2638 222.038 49.084C221.65 49.9037 221.027 50.59 220.25 51.0569C219.474 51.5241 218.574 51.7506 217.668 51.7087C216.762 51.6667 215.888 51.3578 215.159 50.8207C214.428 50.2839 213.871 49.5428 213.561 48.6907C213.137 49.1378 212.629 49.4955 212.066 49.7425C211.502 49.9897 210.895 50.1211 210.281 50.1293C209.664 50.1374 209.055 50.0222 208.484 49.7899C207.914 49.5578 207.396 49.2139 206.962 48.7781C205.881 51.3251 205.06 53.9754 204.515 56.6878C203.859 56.3182 203.303 55.7931 202.898 55.1585C202.491 54.5239 202.247 53.7994 202.187 53.0487C202.127 52.2978 202.251 51.5436 202.55 50.8525C202.849 50.1611 203.314 49.5539 203.903 49.084C203.245 48.7503 202.675 48.2679 202.235 47.675C201.796 47.0823 201.499 46.3953 201.373 45.6685Z" stroke="black" stroke-width="1.725" stroke-linecap="round" stroke-linejoin="round"/>
<path d="M204.936 72.7631L74.491 50.8257" stroke="black" stroke-width="1.725" stroke-linecap="round" stroke-linejoin="round"/>
<path d="M419.75 108.748L229.655 76.8472" stroke="black" stroke-width="1.725" stroke-linecap="round" stroke-linejoin="round"/>
<path d="M218.46 93.4102L179.348 128.545" stroke="black" stroke-width="1.725" stroke-linecap="round" stroke-linejoin="round"/>
<path d="M179.104 132.436C178.579 130.47 178.577 129.067 179.278 128.591C179.932 128.149 181.118 128.54 182.6 129.596C184.819 131.348 186.827 133.355 188.58 135.576" stroke="black" stroke-width="1.725" stroke-linecap="round" stroke-linejoin="round"/>
<path d="M231.569 93.4971L190.36 130.467" stroke="black" stroke-width="1.725" stroke-linecap="round" stroke-linejoin="round"/>
<path d="M210.444 160.313L237.101 137.72L220.957 162.84" stroke="black" stroke-width="1.725" stroke-linecap="round" stroke-linejoin="round"/>
<path d="M114.801 165.284C113.191 165.634 98.4478 170.786 95.3543 176.296C93.2843 179.965 103.745 172.669 110.518 172.451" stroke="black" stroke-width="1.725" stroke-linecap="round" stroke-linejoin="round"/>
<path d="M116.253 170.109C112.146 171.595 102.41 175.707 99.8659 180.335C97.5659 184.535 105.846 176.839 115.773 176.533" stroke="black" stroke-width="1.725" stroke-linecap="round" stroke-linejoin="round"/>
<path d="M117.607 175.611C107.206 181.685 101.475 187.309 115.597 181.204C122.892 178.051 176.087 176.441 176.087 176.441C180.756 175.958 185.213 174.254 189.013 171.498L210.076 155.504" stroke="black" stroke-width="1.725" stroke-linecap="round" stroke-linejoin="round"/>
<path d="M193.42 131.56L172.007 150.569C172.007 150.569 118.343 160.62 114.236 161.793C110.128 162.966 100.291 165.46 97.411 168.742C95.8792 170.487 104.311 167.474 109.429 167.212" stroke="black" stroke-width="1.725" stroke-linecap="round" stroke-linejoin="round"/>
<path d="M190.151 134.381C189.627 132.415 189.624 131.012 190.326 130.536C190.979 130.094 192.166 130.487 193.647 131.541C199.694 135.844 208.68 149.184 210.559 156.494C211.019 158.288 210.936 159.904 210.34 160.295C209.65 160.755 207.675 160.208 206.2 158.547" stroke="black" stroke-width="1.725" stroke-linecap="round" stroke-linejoin="round"/>
<path d="M277.371 174.605C266.821 175.049 256.442 171.822 248.004 165.471" stroke="black" stroke-width="1.725" stroke-linecap="round" stroke-linejoin="round"/>
<path d="M221.299 163.528L216.623 155.094" stroke="black" stroke-width="1.725" stroke-linecap="round" stroke-linejoin="round"/>
<path d="M219.28 89.2103C222.164 93.4055 227.452 91.5701 234.75 84.5344" stroke="black" stroke-width="1.725" stroke-linecap="round" stroke-linejoin="round"/>
<path d="M266.193 227.851L232.231 190.046L269.638 250.964" stroke="black" stroke-width="1.725" stroke-linecap="round" stroke-linejoin="round"/>
<path d="M319.795 249.567C317.329 251.782 314.45 253.49 311.323 254.592C308.196 255.694 304.882 256.17 301.572 255.991C298.262 255.813 295.019 254.983 292.029 253.553C289.037 252.12 286.359 250.112 284.145 247.644L266.366 227.896L273.395 274.816L302.412 307.154C295.131 319.937 283.91 330.023 270.424 335.904L239.702 301.687C235.154 296.629 231.94 290.516 230.351 283.901C223.662 255.841 225.937 206.29 221.611 163.682C239.003 160.449 245.427 156.516 258.668 146.071C267.224 152.325 286.321 156.966 305.512 204.687L334.129 178.947C347.331 185.665 357.564 197.051 362.84 210.892L319.795 249.567Z" stroke="black" stroke-width="1.725" stroke-linecap="round" stroke-linejoin="round"/>
<path d="M217.119 75.6492C218.276 75.2177 219.406 74.7154 220.5 74.145L218.281 78.975" stroke="black" stroke-width="1.725" stroke-linecap="round" stroke-linejoin="round"/>
<path d="M258.42 145.736C256.561 139.893 255.302 133.875 254.662 127.775C253.549 118.391 250.826 109.27 246.612 100.812C242.495 92.1618 233.042 84.1854 228.212 74.9854C226.764 72.4579 225.846 69.663 225.51 66.7698C225.022 63.7299 225.59 60.6148 227.12 57.9424C233.631 55.8011 230.689 48.1352 226.289 51.1252C224.185 52.5581 223.362 52.4799 223.23 51.0815C223.112 50.3462 222.965 49.6465 222.791 48.9839M215.364 108.11C218.584 98.818 221.257 84.6109 217.184 75.703C200.638 81.7727 202.038 60.3206 206.887 48.9839L215.364 108.11Z" stroke="black" stroke-width="1.725" stroke-linecap="round" stroke-linejoin="round"/>
<path d="M292.683 296.57C284.779 308.884 273.529 318.691 260.253 324.843" stroke="black" stroke-width="1.725" stroke-linecap="round" stroke-linejoin="round"/>
<path d="M99.9868 166.814C95.2235 167.295 85.5313 170.264 87.3138 168.213C88.6087 167.006 90.1014 166.03 91.7275 165.329C97.8915 162.316 103.789 161.352 110.344 159.56L161.174 147.237L182.384 129.605" stroke="black" stroke-width="1.725" stroke-linecap="round" stroke-linejoin="round"/>
<path d="M263.242 172.974L302.441 230.57L340.329 200.549" stroke="black" stroke-width="1.725" stroke-linecap="round" stroke-linejoin="round"/>
<path d="M155.526 41.4787C155.232 43.2504 155.471 45.0695 156.211 46.7059C156.95 48.3421 158.159 49.7224 159.684 50.6718C161.207 51.6213 162.98 52.0974 164.774 52.0399C166.571 51.9824 168.307 51.394 169.768 50.3489C171.228 49.304 172.346 47.8493 172.981 46.1689C173.613 44.4887 173.735 42.6582 173.328 40.9088C172.923 39.1596 172.005 37.5701 170.697 36.3414C169.386 35.1128 167.741 34.3 165.97 34.006C163.594 33.6132 161.159 34.1797 159.201 35.5808C157.244 36.982 155.922 39.1033 155.526 41.4787Z" stroke="black" stroke-width="1.725" stroke-linecap="round" stroke-linejoin="round"/>
<path d="M130.677 37.3564C130.382 39.1281 130.622 40.9472 131.362 42.5836C132.1 44.2199 133.31 45.6001 134.835 46.5495C136.358 47.499 138.131 47.9751 139.925 47.9176C141.721 47.8601 143.458 47.2715 144.918 46.2266C146.379 45.1817 147.497 43.727 148.132 42.0466C148.764 40.3664 148.886 38.5359 148.479 36.7865C148.074 35.0373 147.156 33.4478 145.848 32.2191C144.537 30.9905 142.892 30.1777 141.121 29.8837C138.745 29.4909 136.312 30.0571 134.352 31.4585C132.395 32.8597 131.072 34.981 130.677 37.3564Z" stroke="black" stroke-width="1.725" stroke-linecap="round" stroke-linejoin="round"/>
<path d="M105.399 33.1588C105.105 34.9305 105.344 36.7495 106.084 38.386C106.823 40.0222 108.033 41.4024 109.557 42.3519C111.08 43.3013 112.853 43.7772 114.647 43.7199C116.444 43.6624 118.18 43.0739 119.641 42.029C121.101 40.9838 122.219 39.5293 122.854 37.8489C123.486 36.1688 123.608 34.3382 123.201 32.5888C122.796 30.8395 121.878 29.2502 120.57 28.0215C119.259 26.7928 117.614 25.98 115.843 25.6861C113.467 25.2925 111.032 25.8588 109.074 27.26C107.115 28.6614 105.792 30.7831 105.399 33.1588Z" stroke="black" stroke-width="1.725" stroke-linecap="round" stroke-linejoin="round"/>
<path d="M150.593 287.365L184.417 276.877L155.968 257.124" stroke="black" stroke-width="1.725" stroke-linecap="round" stroke-linejoin="round"/>
<path d="M122.561 282.891L94.3312 262.002L127.937 252.607" stroke="black" stroke-width="1.725" stroke-linecap="round" stroke-linejoin="round"/>
<path d="M133.251 240.155L145.618 300.374" stroke="black" stroke-width="1.725" stroke-linecap="round" stroke-linejoin="round"/>
<path d="M53.3939 182.178L39.8929 265.4C39.0787 270.165 39.2121 275.046 40.2839 279.761C41.358 284.476 43.3498 288.933 46.1443 292.878C48.9411 296.822 52.4877 300.178 56.5817 302.752C60.6757 305.325 65.2343 307.067 70.0022 307.876L290.087 344.888" stroke="black" stroke-width="1.725" stroke-linecap="round" stroke-linejoin="round"/>
<path d="M276.908 36.9702L391.363 56.1991C396.13 57.0094 400.69 58.751 404.784 61.3245C408.878 63.8979 412.424 67.2529 415.22 71.1979C418.016 75.1426 420.008 79.5998 421.08 84.3146C422.153 89.0293 422.286 93.9095 421.472 98.6755L410.261 167.8" stroke="black" stroke-width="1.725" stroke-linecap="round" stroke-linejoin="round"/>
<path d="M211.681 26.1091L118.643 10.4781C113.878 9.66388 108.997 9.79703 104.282 10.8698C99.5671 11.9425 95.1098 13.9341 91.1653 16.7302C87.2208 19.5265 83.8651 23.0726 81.2914 27.1662C78.7177 31.2597 76.9766 35.8204 76.167 40.5874L58.9147 146.945" stroke="black" stroke-width="1.725" stroke-linecap="round" stroke-linejoin="round"/>
</g>
<defs>
<clipPath id="clip0_1_134">
<rect width="440" height="408" fill="white"/>
</clipPath>
</defs>
</svg>
