<svg width="98" height="98" viewBox="0 0 98 98" fill="none" xmlns="http://www.w3.org/2000/svg">
<path d="M82.2948 47.9145L21.9872 12.735C21.7963 12.6248 21.5799 12.5668 21.3596 12.5667C21.1393 12.5665 20.9228 12.6244 20.7318 12.7343C20.5409 12.8443 20.3823 13.0026 20.2718 13.1932C20.1614 13.3838 20.103 13.6002 20.1025 13.8205L20.1025 84.1795C20.103 84.3998 20.1614 84.6162 20.2718 84.8068C20.3823 84.9974 20.5409 85.1557 20.7318 85.2657C20.9228 85.3756 21.1393 85.4335 21.3596 85.4334C21.5799 85.4332 21.7963 85.3752 21.9872 85.265L82.2948 50.0855C82.4847 49.9749 82.6421 49.8165 82.7516 49.626C82.8611 49.4355 82.9187 49.2197 82.9187 49C82.9187 48.7803 82.8611 48.5645 82.7516 48.374C82.6421 48.1835 82.4847 48.0251 82.2948 47.9145Z" fill="white"/>
</svg>
