<svg width="138" height="138" viewBox="0 0 138 138" fill="none" xmlns="http://www.w3.org/2000/svg">
<path d="M115.885 67.4713L30.9616 17.9328C30.6929 17.7777 30.3881 17.696 30.0779 17.6958C29.7676 17.6956 29.4628 17.7771 29.1939 17.9319C28.9251 18.0868 28.7017 18.3096 28.5461 18.5781C28.3906 18.8465 28.3084 19.1512 28.3077 19.4615L28.3077 118.538C28.3084 118.849 28.3906 119.153 28.5461 119.422C28.7017 119.69 28.9251 119.913 29.1939 120.068C29.4628 120.223 29.7676 120.304 30.0779 120.304C30.3881 120.304 30.6929 120.222 30.9616 120.067L115.885 70.5285C116.152 70.3728 116.374 70.1497 116.528 69.8814C116.682 69.6132 116.763 69.3093 116.763 68.9999C116.763 68.6906 116.682 68.3866 116.528 68.1184C116.374 67.8502 116.152 67.6271 115.885 67.4713Z" fill="white"/>
</svg>
