<svg width="138" height="138" viewBox="0 0 138 138" fill="none" xmlns="http://www.w3.org/2000/svg">
<path d="M115.885 67.4713L30.9615 17.9328C30.6928 17.7777 30.388 17.696 30.0777 17.6958C29.7675 17.6956 29.4626 17.7771 29.1938 17.9319C28.9249 18.0868 28.7015 18.3096 28.546 18.5781C28.3905 18.8465 28.3082 19.1512 28.3076 19.4615L28.3076 118.538C28.3082 118.849 28.3905 119.153 28.546 119.422C28.7015 119.69 28.9249 119.913 29.1938 120.068C29.4626 120.223 29.7675 120.304 30.0777 120.304C30.388 120.304 30.6928 120.222 30.9615 120.067L115.885 70.5285C116.152 70.3728 116.374 70.1497 116.528 69.8814C116.682 69.6132 116.763 69.3093 116.763 68.9999C116.763 68.6906 116.682 68.3866 116.528 68.1184C116.374 67.8502 116.152 67.6271 115.885 67.4713Z" fill="white"/>
</svg>
