<svg width="54" height="54" viewBox="0 0 54 54" fill="none" xmlns="http://www.w3.org/2000/svg">
<path d="M27 42.8275L27 26.0688" stroke="#6E7787" stroke-width="2.23448" stroke-miterlimit="10"/>
<path d="M20.4828 32.5861L27 26.0688L33.5173 32.5861" stroke="#6E7787" stroke-width="2.23448" stroke-miterlimit="10" stroke-linecap="square"/>
<path d="M32.5862 41.8693C35.5541 41.7003 38.4144 40.6989 40.8396 38.9797C43.2648 37.2605 45.1568 34.8931 46.299 32.1486C47.4412 29.4041 47.7873 26.3933 47.2979 23.4612C46.8084 20.529 45.503 17.794 43.5313 15.5693C41.5596 13.3446 39.0012 11.7201 36.149 10.8819C33.2969 10.0437 30.2664 10.0257 27.4046 10.8299C24.5427 11.6341 21.9651 13.228 19.9671 15.4291C17.969 17.6302 16.6312 20.3495 16.1069 23.2756H15.8276C13.3583 23.2756 10.9902 24.2565 9.24415 26.0026C7.49812 27.7486 6.51721 30.1167 6.51721 32.586C6.51721 35.0552 7.49812 37.4234 9.24415 39.1694C10.9902 40.9154 13.3583 41.8963 15.8276 41.8963H21.4138" stroke="#6E7787" stroke-width="2.23448" stroke-miterlimit="10" stroke-linecap="square"/>
</svg>
