<svg width="54" height="54" viewBox="0 0 54 54" fill="none" xmlns="http://www.w3.org/2000/svg">
<path d="M27 42.8275L27 26.0688" stroke="#6E7787" stroke-width="2.23448" stroke-miterlimit="10"/>
<path d="M20.4827 32.5861L26.9999 26.0688L33.5171 32.5861" stroke="#6E7787" stroke-width="2.23448" stroke-miterlimit="10" stroke-linecap="square"/>
<path d="M32.5863 41.8693C35.5542 41.7003 38.4145 40.6989 40.8397 38.9797C43.2649 37.2605 45.1569 34.8931 46.2991 32.1486C47.4413 29.4041 47.7875 26.3933 47.298 23.4612C46.8085 20.529 45.5031 17.794 43.5314 15.5693C41.5597 13.3446 39.0013 11.7201 36.1492 10.8819C33.2971 10.0437 30.2666 10.0257 27.4047 10.8299C24.5428 11.6341 21.9652 13.228 19.9672 15.4291C17.9691 17.6302 16.6313 20.3495 16.107 23.2756H15.8277C13.3584 23.2756 10.9903 24.2565 9.24427 26.0026C7.49824 27.7486 6.51733 30.1167 6.51733 32.586C6.51733 35.0552 7.49824 37.4234 9.24427 39.1694C10.9903 40.9154 13.3584 41.8963 15.8277 41.8963H21.4139" stroke="#6E7787" stroke-width="2.23448" stroke-miterlimit="10" stroke-linecap="square"/>
</svg>
