<svg width="24" height="24" viewBox="0 0 24 24" fill="none" xmlns="http://www.w3.org/2000/svg">
<path d="M2.89121 13.014C2.68329 12.7167 2.57178 12.3627 2.57178 12C2.57178 11.6372 2.68329 11.2832 2.89121 10.986C4.23949 9.07711 7.55921 5.14282 12.0001 5.14282C16.4409 5.14282 19.7606 9.07711 21.1089 10.986C21.3168 11.2832 21.4283 11.6372 21.4283 12C21.4283 12.3627 21.3168 12.7167 21.1089 13.014C19.7606 14.9228 16.4409 18.8571 12.0001 18.8571C7.55921 18.8571 4.23949 14.9228 2.89121 13.014Z" stroke="#171A1F" stroke-width="2.05714" stroke-miterlimit="10" stroke-linecap="square"/>
<path d="M11.9999 15.4287C13.8934 15.4287 15.4284 13.8937 15.4284 12.0001C15.4284 10.1066 13.8934 8.57153 11.9999 8.57153C10.1063 8.57153 8.57129 10.1066 8.57129 12.0001C8.57129 13.8937 10.1063 15.4287 11.9999 15.4287Z" stroke="#171A1F" stroke-width="2.05714" stroke-miterlimit="10" stroke-linecap="square"/>
<path d="M3.42871 20.5713L20.5716 3.42847" stroke="#171A1F" stroke-width="2.05714" stroke-miterlimit="10" stroke-linecap="square"/>
</svg>
