<svg width="16" height="16" viewBox="0 0 16 16" fill="none" xmlns="http://www.w3.org/2000/svg">
<path opacity="0.4" d="M12.8 2L3.2 2C2.53726 2 2 2.53726 2 3.2L2 12.8C2 13.4627 2.53726 14 3.2 14L12.8 14C13.4627 14 14 13.4627 14 12.8L14 3.2C14 2.53726 13.4627 2 12.8 2Z" fill="#00BDD6"/>
<path d="M12.8 2L3.2 2C2.53726 2 2 2.53726 2 3.2L2 12.8C2 13.4627 2.53726 14 3.2 14L12.8 14C13.4627 14 14 13.4627 14 12.8L14 3.2C14 2.53726 13.4627 2 12.8 2Z" stroke="#00BDD6" stroke-width="0.8" stroke-linecap="round" stroke-linejoin="round"/>
<path d="M10.8 11.5999L8.00001 4.3999L5.20001 11.5999" stroke="#00BDD6" stroke-width="0.8" stroke-linecap="round" stroke-linejoin="round"/>
<path d="M6.13361 9.2002L9.86641 9.2002" stroke="#00BDD6" stroke-width="0.8" stroke-linecap="round" stroke-linejoin="round"/>
</svg>
