<svg width="1330" height="898" viewBox="0 0 1330 898" fill="none" xmlns="http://www.w3.org/2000/svg">
<g clip-path="url(#clip0_1_778)">
<path fill-rule="evenodd" clip-rule="evenodd" d="M-14.34 4.56006H1347.54C1351.42 4.56006 1354.56 7.69407 1354.56 11.5601V837.56C1354.56 841.426 1351.42 844.56 1347.54 844.56H-14.34C-18.217 844.56 -21.36 841.426 -21.36 837.56V11.5601C-21.36 7.69407 -18.217 4.56006 -14.34 4.56006Z" fill="#373B3E" stroke="#373B3E" stroke-width="11.216" stroke-linecap="round" stroke-linejoin="round"/>
<path opacity="0.5" fill-rule="evenodd" clip-rule="evenodd" d="M-10.1279 15.78H1343.33V819.38H-10.1279V15.78Z" stroke="url(#paint0_linear_1_778)" stroke-width="5.60799" stroke-linecap="round" stroke-linejoin="round"/>
<path d="M997.944 877.03H335.256C332.154 877.03 329.64 879.537 329.64 882.63V891.03C329.64 894.123 332.154 896.63 335.256 896.63H997.944C1001.05 896.63 1003.56 894.123 1003.56 891.03V882.63C1003.56 879.537 1001.05 877.03 997.944 877.03Z" fill="#54575A"/>
<path d="M997.944 878.42H335.256C332.154 878.42 329.64 880.927 329.64 884.02V892.42C329.64 895.513 332.154 898.02 335.256 898.02H997.944C1001.05 898.02 1003.56 895.513 1003.56 892.42V884.02C1003.56 880.927 1001.05 878.42 997.944 878.42Z" fill="#373B3E"/>
<path fill-rule="evenodd" clip-rule="evenodd" d="M582.36 877.09C591.665 877.09 599.208 869.568 599.208 860.29V849.09H733.992V860.29C733.992 869.568 741.535 877.09 750.84 877.09H582.36Z" fill="url(#paint1_linear_1_778)"/>
<path fill-rule="evenodd" clip-rule="evenodd" d="M652.924 833.226C652.829 833.06 652.652 832.959 652.461 832.96H651.478C651.287 832.959 651.111 833.06 651.016 833.226L647.115 839.96L644.572 835.186C643.855 833.772 643.168 832.96 641.733 832.96C641.439 832.961 641.201 833.199 641.201 833.492V834.346C641.203 834.641 641.444 834.879 641.74 834.878C642.175 834.878 642.362 835.158 642.976 836.306L646.626 842.942C646.719 843.114 646.899 843.221 647.095 843.222C647.286 843.224 647.462 843.122 647.555 842.956L652.919 833.758C653.014 833.593 653.014 833.391 652.919 833.226M677.549 840.744C677.124 840.741 676.727 840.952 676.491 841.304C676.26 841.661 676.23 842.11 676.409 842.494C676.587 842.868 676.934 843.133 677.341 843.208C677.409 843.208 677.482 843.222 677.548 843.222C677.849 843.221 678.14 843.112 678.368 842.914C678.65 842.679 678.811 842.329 678.804 841.962C678.794 841.28 678.233 840.735 677.549 840.744ZM694.147 832.96C692.719 832.96 692.026 833.772 691.313 835.186L688.797 839.904L686.392 835.186C685.68 833.786 684.988 832.974 683.602 832.96H682.022V829.04C682.022 828.746 681.782 828.508 681.487 828.508H680.665C680.523 828.508 680.387 828.564 680.287 828.664C680.187 828.764 680.131 828.899 680.131 829.04V832.96H678.776C678.481 832.96 678.242 833.198 678.241 833.492V834.276C678.242 834.57 678.481 834.808 678.776 834.808H680.131V839.806C680.027 840.721 680.34 841.634 680.982 842.295C681.624 842.957 682.53 843.297 683.45 843.222C683.624 843.222 683.804 843.208 683.988 843.194C684.263 843.169 684.473 842.937 684.471 842.662V841.934C684.474 841.792 684.417 841.654 684.314 841.556C684.213 841.458 684.078 841.402 683.937 841.402H683.833C683.326 841.462 682.813 841.333 682.396 841.038C682.113 840.693 681.979 840.25 682.022 839.806V834.808H683.447C683.946 834.808 684.149 835.088 684.743 836.208L688.287 842.886C688.35 843.045 688.485 843.164 688.651 843.208C688.888 843.262 689.133 843.154 689.253 842.942L692.868 836.376L692.909 836.306C693.52 835.158 693.706 834.878 694.142 834.878C694.284 834.879 694.421 834.823 694.522 834.723C694.623 834.624 694.68 834.488 694.681 834.346V833.492C694.681 833.351 694.625 833.216 694.526 833.117C694.426 833.017 694.291 832.961 694.15 832.96M661.268 838.49C661.097 840.176 659.645 841.441 657.947 841.384C656.249 841.327 654.885 839.967 654.828 838.274C654.771 836.581 656.04 835.133 657.73 834.962C657.838 834.95 657.947 834.946 658.056 834.948C658.97 834.944 659.842 835.328 660.456 836.004C661.069 836.68 661.366 837.584 661.271 838.49H661.268ZM663.6 841.276H663.577C663.237 841.022 663.064 840.603 663.126 840.184V828.97C663.126 828.829 663.07 828.694 662.97 828.594C662.87 828.494 662.734 828.438 662.592 828.438H661.77C661.628 828.438 661.492 828.494 661.392 828.594C661.292 828.694 661.236 828.829 661.236 828.97L661.253 834.262C659.528 832.846 657.077 832.722 655.218 833.956C653.358 835.191 652.528 837.494 653.174 839.627C653.82 841.76 655.789 843.22 658.024 843.222C659.305 843.228 660.54 842.742 661.472 841.864C661.7 842.233 662 842.552 662.355 842.802C662.653 842.997 662.994 843.117 663.349 843.152C663.531 843.18 663.715 843.123 663.849 842.998C663.987 842.878 664.065 842.704 664.064 842.522V841.892C664.061 841.606 663.87 841.356 663.595 841.276M671.369 838.028L674.653 833.758C674.777 833.598 674.8 833.381 674.71 833.2C674.62 833.018 674.435 832.903 674.231 832.904H673.193C673.028 832.909 672.874 832.986 672.771 833.114L670.203 836.432L667.634 833.114C667.537 832.98 667.379 832.901 667.213 832.904H666.198C665.995 832.904 665.81 833.019 665.721 833.2C665.632 833.382 665.653 833.598 665.777 833.758L669.044 838.014L667.143 840.492C666.997 840.668 666.843 840.837 666.679 840.996C666.495 841.108 666.297 841.198 666.091 841.262C666.079 841.262 666.067 841.276 666.056 841.276L666.034 841.29C665.783 841.378 665.614 841.613 665.612 841.878V842.522C665.619 842.697 665.695 842.862 665.824 842.98C665.953 843.098 666.124 843.16 666.299 843.152C667.163 842.987 667.937 842.514 668.478 841.822L670.223 839.596L672.812 842.956C672.914 843.085 673.068 843.162 673.233 843.166H674.248C674.451 843.166 674.636 843.051 674.725 842.87C674.815 842.688 674.793 842.472 674.67 842.312L671.384 838.028" fill="#030404"/>
<path fill-rule="evenodd" clip-rule="evenodd" d="M652.924 831.826C652.829 831.66 652.652 831.559 652.461 831.56H651.478C651.287 831.559 651.111 831.66 651.016 831.826L647.115 838.56L644.572 833.786C643.855 832.372 643.168 831.56 641.733 831.56C641.439 831.561 641.201 831.799 641.201 832.092V832.946C641.203 833.241 641.444 833.479 641.74 833.478C642.175 833.478 642.362 833.758 642.976 834.906L646.626 841.542C646.719 841.714 646.899 841.821 647.095 841.822C647.286 841.824 647.462 841.722 647.555 841.556L652.919 832.358C653.014 832.193 653.014 831.991 652.919 831.826M677.549 839.344C677.124 839.341 676.727 839.552 676.491 839.904C676.26 840.26 676.23 840.71 676.409 841.094C676.587 841.468 676.934 841.733 677.341 841.808C677.409 841.808 677.482 841.822 677.548 841.822C677.849 841.821 678.14 841.712 678.368 841.514C678.65 841.279 678.811 840.929 678.804 840.562C678.794 839.88 678.233 839.335 677.549 839.344ZM694.147 831.56C692.719 831.56 692.026 832.372 691.313 833.786L688.797 838.504L686.392 833.786C685.68 832.386 684.988 831.574 683.602 831.56H682.022V827.64C682.022 827.346 681.782 827.108 681.487 827.108H680.665C680.523 827.108 680.387 827.164 680.287 827.264C680.187 827.364 680.131 827.499 680.131 827.64V831.56H678.776C678.481 831.56 678.242 831.798 678.241 832.092V832.876C678.242 833.17 678.481 833.408 678.776 833.408H680.131V838.406C680.027 839.321 680.34 840.234 680.982 840.895C681.624 841.557 682.53 841.897 683.45 841.822C683.624 841.822 683.804 841.808 683.988 841.794C684.263 841.769 684.473 841.537 684.471 841.262V840.534C684.474 840.392 684.417 840.254 684.314 840.156C684.213 840.057 684.078 840.002 683.937 840.002H683.833C683.326 840.062 682.813 839.933 682.396 839.638C682.113 839.293 681.979 838.85 682.022 838.406V833.408H683.447C683.946 833.408 684.149 833.688 684.743 834.808L688.287 841.486C688.35 841.645 688.485 841.764 688.651 841.808C688.888 841.862 689.133 841.754 689.253 841.542L692.868 834.976L692.909 834.906C693.52 833.758 693.706 833.478 694.142 833.478C694.284 833.479 694.421 833.423 694.522 833.323C694.623 833.224 694.68 833.088 694.681 832.946V832.092C694.681 831.951 694.625 831.816 694.526 831.716C694.426 831.617 694.291 831.56 694.15 831.56M661.268 837.09C661.097 838.776 659.645 840.041 657.947 839.984C656.249 839.927 654.885 838.567 654.828 836.874C654.771 835.181 656.04 833.733 657.73 833.562C657.838 833.55 657.947 833.546 658.056 833.548C658.97 833.544 659.842 833.928 660.456 834.604C661.069 835.28 661.366 836.184 661.271 837.09H661.268ZM663.6 839.876H663.577C663.237 839.622 663.064 839.203 663.126 838.784V827.57C663.126 827.429 663.07 827.294 662.97 827.194C662.87 827.094 662.734 827.038 662.592 827.038H661.77C661.628 827.038 661.492 827.094 661.392 827.194C661.292 827.294 661.236 827.429 661.236 827.57L661.253 832.862C659.528 831.446 657.077 831.322 655.218 832.556C653.358 833.791 652.528 836.094 653.174 838.227C653.82 840.36 655.789 841.82 658.024 841.822C659.305 841.828 660.54 841.342 661.472 840.464C661.7 840.833 662 841.152 662.355 841.402C662.653 841.597 662.994 841.717 663.349 841.752C663.531 841.78 663.715 841.723 663.849 841.598C663.987 841.478 664.065 841.304 664.064 841.122V840.492C664.061 840.206 663.87 839.956 663.595 839.876M671.369 836.628L674.653 832.358C674.777 832.198 674.8 831.981 674.71 831.8C674.62 831.618 674.435 831.503 674.231 831.504H673.193C673.028 831.509 672.874 831.586 672.771 831.714L670.203 835.032L667.634 831.714C667.537 831.58 667.379 831.501 667.213 831.504H666.198C665.995 831.504 665.81 831.619 665.721 831.8C665.632 831.982 665.653 832.198 665.777 832.358L669.044 836.614L667.143 839.092C666.997 839.268 666.843 839.437 666.679 839.596C666.495 839.708 666.297 839.798 666.091 839.862C666.079 839.862 666.067 839.876 666.056 839.876L666.034 839.89C665.783 839.978 665.614 840.213 665.612 840.478V841.122C665.619 841.297 665.695 841.462 665.824 841.58C665.953 841.698 666.124 841.76 666.299 841.752C667.163 841.587 667.937 841.114 668.478 840.422L670.223 838.196L672.812 841.556C672.914 841.685 673.068 841.762 673.233 841.766H674.248C674.451 841.766 674.636 841.651 674.725 841.47C674.815 841.288 674.793 841.072 674.67 840.912L671.384 836.628" fill="#405DE6"/>
</g>
<defs>
<linearGradient id="paint0_linear_1_778" x1="666.6" y1="819.38" x2="666.6" y2="15.78" gradientUnits="userSpaceOnUse">
<stop stop-color="#808589"/>
<stop offset="1" stop-color="#373B3E"/>
</linearGradient>
<linearGradient id="paint1_linear_1_778" x1="666.6" y1="849.09" x2="666.6" y2="877.09" gradientUnits="userSpaceOnUse">
<stop/>
<stop offset="0.974" stop-color="#373B3E"/>
<stop offset="1" stop-color="#373B3E"/>
</linearGradient>
<clipPath id="clip0_1_778">
<rect width="1330" height="898" fill="white"/>
</clipPath>
</defs>
</svg>
