<svg width="20" height="20" viewBox="0 0 20 20" fill="none" xmlns="http://www.w3.org/2000/svg">
<path d="M13.3333 4.16658L12.1499 5.34992L10.8249 4.02492L10.8249 13.3333H9.17492L9.17492 4.02492L7.84992 5.34992L6.66659 4.16658L9.99992 0.833252L13.3333 4.16658ZM16.6666 8.33325L16.6666 17.4999C16.6666 18.4166 15.9166 19.1666 14.9999 19.1666L4.99992 19.1666C4.55789 19.1666 4.13397 18.991 3.82141 18.6784C3.50885 18.3659 3.33325 17.9419 3.33325 17.4999L3.33325 8.33325C3.33325 7.40825 4.07492 6.66658 4.99992 6.66658L7.49992 6.66658L7.49992 8.33325L4.99992 8.33325L4.99992 17.4999L14.9999 17.4999L14.9999 8.33325L12.4999 8.33325V6.66658L14.9999 6.66658C15.4419 6.66658 15.8659 6.84218 16.1784 7.15474C16.491 7.4673 16.6666 7.89122 16.6666 8.33325Z" fill="white"/>
</svg>
