<svg width="20" height="20" viewBox="0 0 20 20" fill="none" xmlns="http://www.w3.org/2000/svg">
<path d="M13.3333 4.16683L12.1499 5.35016L10.8249 4.02516L10.8249 13.3335H9.17492L9.17492 4.02516L7.84992 5.35016L6.66659 4.16683L9.99992 0.833496L13.3333 4.16683ZM16.6666 8.3335L16.6666 17.5002C16.6666 18.4168 15.9166 19.1668 14.9999 19.1668L4.99992 19.1668C4.55789 19.1668 4.13397 18.9912 3.82141 18.6787C3.50885 18.3661 3.33325 17.9422 3.33325 17.5002L3.33325 8.3335C3.33325 7.4085 4.07492 6.66683 4.99992 6.66683L7.49992 6.66683L7.49992 8.3335L4.99992 8.3335L4.99992 17.5002L14.9999 17.5002L14.9999 8.3335L12.4999 8.3335V6.66683L14.9999 6.66683C15.4419 6.66683 15.8659 6.84242 16.1784 7.15498C16.491 7.46755 16.6666 7.89147 16.6666 8.3335Z" fill="white"/>
</svg>
