<svg width="20" height="20" viewBox="0 0 20 20" fill="none" xmlns="http://www.w3.org/2000/svg">
<path d="M13.3335 4.16666L12.1502 5.34999L10.8252 4.02499L10.8252 13.3333H9.17516L9.17516 4.02499L7.85016 5.34999L6.66683 4.16666L10.0002 0.833328L13.3335 4.16666ZM16.6668 8.33333L16.6668 17.5C16.6668 18.4167 15.9168 19.1667 15.0002 19.1667L5.00016 19.1667C4.55814 19.1667 4.13421 18.9911 3.82165 18.6785C3.50909 18.3659 3.3335 17.942 3.3335 17.5L3.3335 8.33333C3.3335 7.40833 4.07516 6.66666 5.00016 6.66666L7.50016 6.66666L7.50016 8.33333L5.00016 8.33333L5.00016 17.5L15.0002 17.5L15.0002 8.33333L12.5002 8.33333V6.66666L15.0002 6.66666C15.4422 6.66666 15.8661 6.84226 16.1787 7.15482C16.4912 7.46738 16.6668 7.8913 16.6668 8.33333Z" fill="white"/>
</svg>
