<svg width="20" height="20" viewBox="0 0 20 20" fill="none" xmlns="http://www.w3.org/2000/svg">
<path d="M13.3334 4.16683L12.15 5.35016L10.825 4.02516L10.825 13.3335H9.17504L9.17504 4.02516L7.85004 5.35016L6.66671 4.16683L10 0.833496L13.3334 4.16683ZM16.6667 8.3335L16.6667 17.5002C16.6667 18.4168 15.9167 19.1668 15 19.1668L5.00004 19.1668C4.55801 19.1668 4.13409 18.9912 3.82153 18.6787C3.50897 18.3661 3.33337 17.9422 3.33337 17.5002L3.33337 8.3335C3.33337 7.4085 4.07504 6.66683 5.00004 6.66683L7.50004 6.66683L7.50004 8.3335L5.00004 8.3335L5.00004 17.5002L15 17.5002L15 8.3335L12.5 8.3335V6.66683L15 6.66683C15.4421 6.66683 15.866 6.84242 16.1786 7.15498C16.4911 7.46755 16.6667 7.89147 16.6667 8.3335Z" fill="white"/>
</svg>
