<svg width="20" height="20" viewBox="0 0 20 20" fill="none" xmlns="http://www.w3.org/2000/svg">
<path d="M13.3333 4.16658L12.15 5.34992L10.825 4.02492L10.825 13.3333H9.175L9.175 4.02492L7.85 5.34992L6.66667 4.16658L10 0.833252L13.3333 4.16658ZM16.6667 8.33325L16.6667 17.4999C16.6667 18.4166 15.9167 19.1666 15 19.1666L5 19.1666C4.55797 19.1666 4.13405 18.991 3.82149 18.6784C3.50893 18.3659 3.33333 17.9419 3.33333 17.4999L3.33333 8.33325C3.33333 7.40825 4.075 6.66658 5 6.66658L7.5 6.66658L7.5 8.33325L5 8.33325L5 17.4999L15 17.4999L15 8.33325L12.5 8.33325V6.66658L15 6.66658C15.442 6.66658 15.866 6.84218 16.1785 7.15474C16.4911 7.4673 16.6667 7.89122 16.6667 8.33325Z" fill="white"/>
</svg>
