<svg width="20" height="20" viewBox="0 0 20 20" fill="none" xmlns="http://www.w3.org/2000/svg">
<path d="M13.3335 4.16683L12.1502 5.35016L10.8252 4.02516L10.8252 13.3335H9.17516L9.17516 4.02516L7.85016 5.35016L6.66683 4.16683L10.0002 0.833496L13.3335 4.16683ZM16.6668 8.3335L16.6668 17.5002C16.6668 18.4168 15.9168 19.1668 15.0002 19.1668L5.00016 19.1668C4.55814 19.1668 4.13421 18.9912 3.82165 18.6787C3.50909 18.3661 3.3335 17.9422 3.3335 17.5002L3.3335 8.3335C3.3335 7.4085 4.07516 6.66683 5.00016 6.66683L7.50016 6.66683L7.50016 8.3335L5.00016 8.3335L5.00016 17.5002L15.0002 17.5002L15.0002 8.3335L12.5002 8.3335V6.66683L15.0002 6.66683C15.4422 6.66683 15.8661 6.84242 16.1787 7.15498C16.4912 7.46755 16.6668 7.89147 16.6668 8.3335Z" fill="white"/>
</svg>
