<svg width="20" height="20" viewBox="0 0 20 20" fill="none" xmlns="http://www.w3.org/2000/svg">
<path d="M13.3335 4.16658L12.1502 5.34992L10.8252 4.02492L10.8252 13.3333H9.17516L9.17516 4.02492L7.85016 5.34992L6.66683 4.16658L10.0002 0.833252L13.3335 4.16658ZM16.6668 8.33325L16.6668 17.4999C16.6668 18.4166 15.9168 19.1666 15.0002 19.1666L5.00016 19.1666C4.55814 19.1666 4.13421 18.991 3.82165 18.6784C3.50909 18.3659 3.3335 17.9419 3.3335 17.4999L3.3335 8.33325C3.3335 7.40825 4.07516 6.66658 5.00016 6.66658L7.50016 6.66658L7.50016 8.33325L5.00016 8.33325L5.00016 17.4999L15.0002 17.4999L15.0002 8.33325L12.5002 8.33325V6.66658L15.0002 6.66658C15.4422 6.66658 15.8661 6.84218 16.1787 7.15474C16.4912 7.4673 16.6668 7.89122 16.6668 8.33325Z" fill="white"/>
</svg>
