<svg width="24" height="24" viewBox="0 0 24 24" fill="none" xmlns="http://www.w3.org/2000/svg">
<path d="M17.9999 11.1428L5.99993 11.1428C5.05316 11.1428 4.28564 11.9103 4.28564 12.8571L4.28564 19.7143C4.28564 20.661 5.05316 21.4285 5.99993 21.4285L17.9999 21.4285C18.9467 21.4285 19.7142 20.661 19.7142 19.7143V12.8571C19.7142 11.9103 18.9467 11.1428 17.9999 11.1428Z" stroke="#171A1F" stroke-width="2.05714" stroke-miterlimit="10" stroke-linecap="square"/>
<path d="M11.9999 18.0001C12.9467 18.0001 13.7142 17.2326 13.7142 16.2858C13.7142 15.339 12.9467 14.5715 11.9999 14.5715C11.0532 14.5715 10.2856 15.339 10.2856 16.2858C10.2856 17.2326 11.0532 18.0001 11.9999 18.0001Z" stroke="#171A1F" stroke-width="2.05714" stroke-miterlimit="10" stroke-linecap="square"/>
<path d="M16.2858 7.71436V6.85721C16.297 5.73199 15.8608 4.64838 15.0732 3.84469C14.2856 3.041 13.211 2.58304 12.0858 2.5715H12.0001C10.8748 2.5603 9.79124 2.99647 8.98755 3.78409C8.18386 4.5717 7.72589 5.64628 7.71436 6.7715V7.71436" stroke="#171A1F" stroke-width="2.05714" stroke-miterlimit="10" stroke-linecap="square"/>
</svg>
