<svg width="16" height="16" viewBox="0 0 16 16" fill="none" xmlns="http://www.w3.org/2000/svg">
<path d="M7.9998 9.19999C8.66255 9.19999 9.1998 8.66273 9.1998 7.99999C9.1998 7.33725 8.66255 6.79999 7.9998 6.79999C7.33706 6.79999 6.7998 7.33725 6.7998 7.99999C6.7998 8.66273 7.33706 9.19999 7.9998 9.19999Z" stroke="#6E7787" stroke-width="0.8" stroke-miterlimit="10" stroke-linecap="round" stroke-linejoin="round"/>
<path d="M12.8001 9.19999C13.4628 9.19999 14.0001 8.66273 14.0001 7.99999C14.0001 7.33725 13.4628 6.79999 12.8001 6.79999C12.1374 6.79999 11.6001 7.33725 11.6001 7.99999C11.6001 8.66273 12.1374 9.19999 12.8001 9.19999Z" stroke="#6E7787" stroke-width="0.8" stroke-miterlimit="10" stroke-linecap="round" stroke-linejoin="round"/>
<path d="M3.2 9.19999C3.86274 9.19999 4.4 8.66273 4.4 7.99999C4.4 7.33725 3.86274 6.79999 3.2 6.79999C2.53726 6.79999 2 7.33725 2 7.99999C2 8.66273 2.53726 9.19999 3.2 9.19999Z" stroke="#6E7787" stroke-width="0.8" stroke-miterlimit="10" stroke-linecap="round" stroke-linejoin="round"/>
</svg>
