<svg width="16" height="16" viewBox="0 0 16 16" fill="none" xmlns="http://www.w3.org/2000/svg">
<path d="M7.9998 9.2C8.66255 9.2 9.1998 8.66274 9.1998 8C9.1998 7.33726 8.66255 6.8 7.9998 6.8C7.33706 6.8 6.7998 7.33726 6.7998 8C6.7998 8.66274 7.33706 9.2 7.9998 9.2Z" stroke="#6E7787" stroke-width="0.8" stroke-miterlimit="10" stroke-linecap="round" stroke-linejoin="round"/>
<path d="M12.8001 9.2C13.4628 9.2 14.0001 8.66274 14.0001 8C14.0001 7.33726 13.4628 6.8 12.8001 6.8C12.1374 6.8 11.6001 7.33726 11.6001 8C11.6001 8.66274 12.1374 9.2 12.8001 9.2Z" stroke="#6E7787" stroke-width="0.8" stroke-miterlimit="10" stroke-linecap="round" stroke-linejoin="round"/>
<path d="M3.2 9.2C3.86274 9.2 4.4 8.66274 4.4 8C4.4 7.33726 3.86274 6.8 3.2 6.8C2.53726 6.8 2 7.33726 2 8C2 8.66274 2.53726 9.2 3.2 9.2Z" stroke="#6E7787" stroke-width="0.8" stroke-miterlimit="10" stroke-linecap="round" stroke-linejoin="round"/>
</svg>
