<svg width="14" height="14" viewBox="0 0 14 14" fill="none" xmlns="http://www.w3.org/2000/svg">
<path d="M8.64279 8.15253L7.84409 9.15108C6.60708 8.42401 5.5762 7.39314 4.84914 6.15613L5.84769 5.35743C5.96467 5.26372 6.04733 5.13393 6.08279 4.98831C6.11824 4.84268 6.1045 4.68942 6.04369 4.55243L5.13369 2.50318C5.06844 2.35616 4.95309 2.23711 4.80821 2.16724C4.66334 2.09736 4.49836 2.08122 4.34269 2.12168L2.61019 2.57108C2.4485 2.61329 2.30792 2.71336 2.21509 2.85231C2.12226 2.99126 2.08364 3.15944 2.10654 3.32498C2.41057 5.49 3.41117 7.49719 4.9571 9.04312C6.50302 10.589 8.51021 11.5896 10.6752 11.8937C10.8407 11.9165 11.0088 11.8778 11.1477 11.785C11.2866 11.6922 11.3866 11.5516 11.4288 11.39L11.8782 9.65753C11.9185 9.502 11.9023 9.33721 11.8325 9.1925C11.7627 9.04778 11.6438 8.93252 11.497 8.86723L9.44779 7.95723C9.31087 7.89634 9.15766 7.88248 9.01204 7.91781C8.86642 7.95314 8.73658 8.03567 8.64279 8.15253Z" stroke="#171A1F" stroke-width="0.84" stroke-miterlimit="10" stroke-linecap="square"/>
</svg>
