<svg width="16" height="16" viewBox="0 0 16 16" fill="none" xmlns="http://www.w3.org/2000/svg">
<path d="M12.4001 6.4C12.4001 10 8.0001 14 8.0001 14C8.0001 14 3.6001 10 3.6001 6.4C3.6001 5.23305 4.06367 4.11389 4.88883 3.28873C5.71399 2.46357 6.83315 2 8.0001 2C9.16705 2 10.2862 2.46357 11.1114 3.28873C11.9365 4.11389 12.4001 5.23305 12.4001 6.4Z" stroke="#171A1F" stroke-width="0.8" stroke-linecap="round" stroke-linejoin="round"/>
<path d="M8 8.3999C9.10457 8.3999 10 7.50447 10 6.3999C10 5.29533 9.10457 4.3999 8 4.3999C6.89543 4.3999 6 5.29533 6 6.3999C6 7.50447 6.89543 8.3999 8 8.3999Z" stroke="#171A1F" stroke-width="0.8" stroke-linecap="round" stroke-linejoin="round"/>
</svg>
