<svg width="24" height="24" viewBox="0 0 24 24" fill="none" xmlns="http://www.w3.org/2000/svg">
<path d="M21.4284 2.57143L2.57129 2.57143L2.57129 14.5714L21.4284 14.5714L21.4284 2.57143Z" stroke="#00BDD6" stroke-width="2.05714" stroke-miterlimit="10" stroke-linecap="square"/>
<path d="M11.9999 21.4286C12.9467 21.4286 13.7142 20.6611 13.7142 19.7143C13.7142 18.7675 12.9467 18 11.9999 18C11.0532 18 10.2856 18.7675 10.2856 19.7143C10.2856 20.6611 11.0532 21.4286 11.9999 21.4286Z" fill="#00BDD6"/>
<path d="M5.143 21.4286C6.08977 21.4286 6.85728 20.6611 6.85728 19.7143C6.85728 18.7675 6.08977 18 5.143 18C4.19622 18 3.42871 18.7675 3.42871 19.7143C3.42871 20.6611 4.19622 21.4286 5.143 21.4286Z" stroke="#00BDD6" stroke-width="2.05714" stroke-miterlimit="10" stroke-linecap="square"/>
<path d="M18.8574 21.4286C19.8041 21.4286 20.5716 20.6611 20.5716 19.7143C20.5716 18.7675 19.8041 18 18.8574 18C17.9106 18 17.1431 18.7675 17.1431 19.7143C17.1431 20.6611 17.9106 21.4286 18.8574 21.4286Z" stroke="#00BDD6" stroke-width="2.05714" stroke-miterlimit="10" stroke-linecap="square"/>
</svg>
