<svg width="20" height="20" viewBox="0 0 20 20" fill="none" xmlns="http://www.w3.org/2000/svg">
<path d="M17.5 2.5L2.5 2.5L2.5 11.5L17.5 11.5V2.5Z" stroke="#00BDD6" stroke-linecap="round" stroke-linejoin="round"/>
<path d="M10 17.5C10.8284 17.5 11.5 16.8284 11.5 16C11.5 15.1716 10.8284 14.5 10 14.5C9.17157 14.5 8.5 15.1716 8.5 16C8.5 16.8284 9.17157 17.5 10 17.5Z" stroke="#00BDD6" stroke-linecap="round" stroke-linejoin="round"/>
<path d="M5 17C5.55228 17 6 16.5523 6 16C6 15.4477 5.55228 15 5 15C4.44772 15 4 15.4477 4 16C4 16.5523 4.44772 17 5 17Z" fill="#00BDD6"/>
<path d="M15 17C15.5523 17 16 16.5523 16 16C16 15.4477 15.5523 15 15 15C14.4477 15 14 15.4477 14 16C14 16.5523 14.4477 17 15 17Z" fill="#00BDD6"/>
</svg>
