<svg width="20" height="20" viewBox="0 0 20 20" fill="none" xmlns="http://www.w3.org/2000/svg">
<path opacity="0.4" d="M16 2.5L4 2.5C3.17157 2.5 2.5 3.17157 2.5 4L2.5 16C2.5 16.8284 3.17157 17.5 4 17.5L16 17.5C16.8284 17.5 17.5 16.8284 17.5 16L17.5 4C17.5 3.17157 16.8284 2.5 16 2.5Z" fill="#00BDD6"/>
<path d="M16 2.5L4 2.5C3.17157 2.5 2.5 3.17157 2.5 4L2.5 16C2.5 16.8284 3.17157 17.5 4 17.5L16 17.5C16.8284 17.5 17.5 16.8284 17.5 16L17.5 4C17.5 3.17157 16.8284 2.5 16 2.5Z" stroke="#00BDD6" stroke-linecap="round" stroke-linejoin="round"/>
<path d="M13.5 14.5L10 5.5L6.5 14.5" stroke="#00BDD6" stroke-linecap="round" stroke-linejoin="round"/>
<path d="M7.66699 11.5L12.333 11.5" stroke="#00BDD6" stroke-linecap="round" stroke-linejoin="round"/>
</svg>
