<svg width="24" height="25" viewBox="0 0 24 25" fill="none" xmlns="http://www.w3.org/2000/svg">
<path opacity="0.4" d="M18.8571 3.92847L5.14284 3.92847C4.19607 3.92847 3.42856 4.69598 3.42856 5.64275L3.42856 19.357C3.42856 20.3038 4.19607 21.0713 5.14284 21.0713L18.8571 21.0713C19.8039 21.0713 20.5714 20.3038 20.5714 19.357L20.5714 5.64275C20.5714 4.69598 19.8039 3.92847 18.8571 3.92847Z" fill="#171A1F" fill-opacity="0.68"/>
<path d="M18.8571 3.92847L5.14284 3.92847C4.19607 3.92847 3.42856 4.69598 3.42856 5.64275L3.42856 19.357C3.42856 20.3038 4.19607 21.0713 5.14284 21.0713L18.8571 21.0713C19.8039 21.0713 20.5714 20.3038 20.5714 19.357L20.5714 5.64275C20.5714 4.69598 19.8039 3.92847 18.8571 3.92847Z" stroke="#171A1F" stroke-opacity="0.68" stroke-width="2.05714" stroke-miterlimit="10" stroke-linecap="square"/>
<path d="M15.6737 17.6429L12.2143 7.35718H11.7857L8.32629 17.6429" stroke="#171A1F" stroke-opacity="0.68" stroke-width="2.05714" stroke-linecap="square"/>
<path d="M9.48001 14.2144L14.52 14.2144" stroke="#171A1F" stroke-opacity="0.68" stroke-width="2.05714"/>
</svg>
