<svg width="16" height="16" viewBox="0 0 16 16" fill="none" xmlns="http://www.w3.org/2000/svg">
<path opacity="0.4" d="M12.8 2L3.2 2C2.53726 2 2 2.53726 2 3.2L2 12.8C2 13.4627 2.53726 14 3.2 14L12.8 14C13.4627 14 14 13.4627 14 12.8L14 3.2C14 2.53726 13.4627 2 12.8 2Z" fill="#00BDD6"/>
<path d="M12.8 2L3.2 2C2.53726 2 2 2.53726 2 3.2L2 12.8C2 13.4627 2.53726 14 3.2 14L12.8 14C13.4627 14 14 13.4627 14 12.8L14 3.2C14 2.53726 13.4627 2 12.8 2Z" stroke="#00BDD6" stroke-width="0.8" stroke-linecap="round" stroke-linejoin="round"/>
<path d="M10.8002 11.6L8.0002 4.39999L5.2002 11.6" stroke="#00BDD6" stroke-width="0.8" stroke-linecap="round" stroke-linejoin="round"/>
<path d="M6.13379 9.20001L9.86659 9.20001" stroke="#00BDD6" stroke-width="0.8" stroke-linecap="round" stroke-linejoin="round"/>
</svg>
