<svg width="16" height="16" viewBox="0 0 16 16" fill="none" xmlns="http://www.w3.org/2000/svg">
<path d="M13.2 2L2.8 2C2.35817 2 2 2.35817 2 2.8L2 13.2C2 13.6418 2.35817 14 2.8 14L13.2 14C13.6418 14 14 13.6418 14 13.2L14 2.8C14 2.35817 13.6418 2 13.2 2Z" stroke="#00BDD6" stroke-width="0.8" stroke-linecap="round" stroke-linejoin="round"/>
<path d="M3.6001 10.8L5.2001 7.6L6.8001 9.2L9.2001 6L12.4001 10.8L3.6001 10.8Z" stroke="#00BDD6" stroke-width="0.8" stroke-linecap="round" stroke-linejoin="round"/>
<path d="M6.4001 5.6C6.84193 5.6 7.2001 5.24183 7.2001 4.8C7.2001 4.35817 6.84193 4 6.4001 4C5.95827 4 5.6001 4.35817 5.6001 4.8C5.6001 5.24183 5.95827 5.6 6.4001 5.6Z" fill="#00BDD6"/>
</svg>
